<svg width="100%" height="100%" viewBox="0 0 200 80" preserveAspectRatio="none" xmlns="http://www.w3.org/2000/svg">
  <!-- Back range -->
  <path
    d="M0 80V54l5-4 5-6 5-8 5-4 5-6 5 4 5 6 5-4 5-8 5-6 5-4 5 8 5 4 5-6 5-8 5-6 5 4 5 8 5 6 5-4 5-6 5 4 5-4 5-8 5 4 5 6 5 4 5-6 5-4 5 4 5 8 5 4 5 6 5-4 5-6 5 4 5 8 5 4 5 6 5 2V80z"
    fill="#0d1117"
  />
  <!-- Front range -->
  <path
    d="M0 80V66l5-4 5-6 5 4 5-4 5-6 5-4 5 6 5 4 5-6 5-4 5-8 5 4 5 6 5-4 5-6 5 4 5 8 5-4 5-6 5 4 5 6 5-4 5-6 5 4 5 6 5 4 5-4 5-6 5 4 5 6 5 4 5-4 5 4 5 6 5 4 5 2 5 2 5-2 5 4 5 2V80z"
    fill="#161b22"
  />
  <!-- Snow caps -->
  <path
    d="M15 30h4v4h-4zM30 22h4v4h-4zM75 28h4v4h-4zM110 24h4v4h-4zM145 26h4v4h-4zM175 30h4v4h-4z"
    fill="#2a3140"
    opacity="0.6"
  />
</svg>
